<svg width="38" height="38" viewBox="0 0 38 38" fill="none" xmlns="http://www.w3.org/2000/svg">
	<g clip-path="url(#clip0_2_90)">
		<path d="M38 19C38 35.9715 36.1615 38 19.0699 38C1.97829 38 0.00357056 35.8363 0.00357056 19C0.00357056 2.1637 2.59114 0 19.0699 0C35.5486 0 38 2.02847 38 19Z" fill="#B2B2B2" />
		<g clip-path="url(#clip1_2_90)">
			<path d="M0.919861 30.6535L10.4018 16.9643L23.8858 26.3049L15.7897 37.9934C6.34382 37.766 2.45647 36.3444 0.919861 30.6535Z" fill="#E4E4E4" />
			<path fill-rule="evenodd" clip-rule="evenodd" d="M25.7996 26.8537C27.2329 25.5002 28.303 23.7017 27.966 22.1556C27.8697 21.4895 27.4932 20.9404 26.7146 20.3005C26.8234 19.4974 27.7295 17.9218 26.684 16.1524C26.5756 15.9675 26.4572 15.8039 26.3318 15.6589C25.8885 15.0521 25.2079 14.5907 24.4467 14.4249C23.6611 14.2543 23.1597 14.3862 22.6181 14.4391C22.4747 13.912 22.4264 13.3968 21.9889 12.7205C21.5905 12.1036 20.9687 11.6457 20.2912 11.4304C20.0683 11.3338 19.8204 11.2584 19.5467 11.2111C17.5072 10.8506 16.341 12.2647 15.6221 12.652C14.3067 11.8909 13.5002 11.9083 12.4073 12.5657C11.3535 13.1989 10.455 14.3822 9.93213 15.6252C6.2645 24.0032 18.3055 33.9311 25.8009 26.8552" fill="#E4E4E4" />
			<path fill-rule="evenodd" clip-rule="evenodd" d="M20.2716 21.3914C21.9708 22.9976 21.2817 24.7574 20.2002 25.3594C18.9344 26.0645 17.3102 25.3494 15.7848 24.2866C14.2372 23.2082 12.9971 22.0507 13.0941 20.5568C13.1505 19.6889 13.9229 18.9349 14.6331 18.7035C15.4054 18.4511 15.8856 18.5429 16.8365 19.0088C18.767 17.4571 21.0762 18.8126 20.2701 21.3927" fill="#B2B2B2" />
			<path fill-rule="evenodd" clip-rule="evenodd" d="M20.1739 13.5058C21.5553 15.399 18.8691 18.1526 17.5948 16.3588C17.1355 15.7136 17.2459 14.5575 17.8413 13.7835C18.4137 13.0405 19.5332 12.6271 20.1752 13.5059" fill="#B2B2B2" />
			<path fill-rule="evenodd" clip-rule="evenodd" d="M25.0522 16.8496C26.3037 18.4024 23.4579 21.0755 21.9828 19.4342C21.4176 18.8064 21.7877 17.6002 22.604 16.9309C23.2082 16.4352 24.4189 16.065 25.0522 16.8496Z" fill="#B2B2B2" />
			<path fill-rule="evenodd" clip-rule="evenodd" d="M26.2976 22.7785C27.2616 24.4024 24.0212 25.8942 23.0741 24.3486C22.1512 22.8421 25.2913 21.0837 26.2976 22.7785Z" fill="#B2B2B2" />
			<path fill-rule="evenodd" clip-rule="evenodd" d="M14.495 14.6125C15.7722 16.4876 13.6232 18.7399 12.4289 16.9431C11.2625 15.1912 13.2511 12.7842 14.495 14.6125Z" fill="#B2B2B2" />
		</g>
	</g>
	<defs>
		<clipPath id="clip0_2_90">
			<rect width="38" height="38" fill="white" />
		</clipPath>
		<clipPath id="clip1_2_90">
			<rect width="28.2259" height="27.0071" fill="white" transform="translate(6.10352e-05 10.9928)" />
		</clipPath>
	</defs>
</svg>
